<?xml version="1.0" encoding="UTF-8" standalone="no"?>
<!-- Created with Inkscape (http://www.inkscape.org/) -->

<svg
   width="480mm"
   height="180mm"
   viewBox="0 0 480 180"
   version="1.1"
   id="svg1052"
   xmlns="http://www.w3.org/2000/svg"
   xmlns:svg="http://www.w3.org/2000/svg">
  <defs
     id="defs1049" />
  <g
     id="layer1">
    <path
       d="m 477.43376,83.112503 c -56.8718,59.949247 -122.44778,39.081237 -205.94149,0.56066 -83.4937,-38.518781 -170.31085,7.27329 -141.19781,80.278267 56.64602,-100.878597 151.73452,-21.90911 227.04178,-13.54811 75.30754,8.361 111.97999,-31.66885 120.09752,-67.290817 z"
       fill="#0079ff"
       fill-opacity="1"
       id="path173"
       style="stroke-width:3.61244" />
    <g
       id="g193"
       transform="matrix(3.6124444,0,0,3.6124444,253.47051,424.0095)">
      <g
         id="g185">
        <path
           d="m -59.5058,-98.7493 c 0.2634,1.1821 1.4437,1.9322 2.6258,1.6688 l 15.2835,-3.4055 c 1.1821,-0.263 1.9322,-1.444 1.6688,-2.626 -0.2634,-1.182 -1.4437,-1.932 -2.6258,-1.669 l -15.2835,3.406 c -1.1821,0.263 -1.9322,1.4436 -1.6688,2.6257 z"
           fill="#ffffff"
           fill-opacity="1"
           id="path175" />
        <path
           d="m -62.435,-90.8255 c 0.2634,1.1821 1.4437,1.9322 2.6258,1.6688 l 17.7296,-3.9506 c 1.1821,-0.2634 1.9323,-1.4437 1.6689,-2.6258 -0.2634,-1.1821 -1.4437,-1.9322 -2.6258,-1.6688 l -17.7296,3.9506 c -1.1821,0.2634 -1.9323,1.4437 -1.6689,2.6258 z"
           fill="#ffffff"
           fill-opacity="1"
           id="path177" />
        <path
           d="m -69.0549,-96.6215 c 0.2634,1.1821 1.4437,1.9322 2.6258,1.6688 l 3.3945,-0.7563 c 1.1821,-0.2634 1.9322,-1.4437 1.6688,-2.6258 -0.2634,-1.1821 -1.4437,-1.9322 -2.6258,-1.6692 l -3.3945,0.7567 c -1.1821,0.2634 -1.9322,1.4437 -1.6688,2.6258 z"
           fill="#ffffff"
           fill-opacity="1"
           id="path179" />
        <path
           d="m -44.8087,-89.7359 -1.126,0.2509 c -1.1821,0.2634 -1.9322,1.4436 -1.6688,2.6257 0.2634,1.1821 1.4437,1.9323 2.6258,1.6689 l 1.126,-0.2509 c 0,0 0,0 0,0 l 1.1342,-0.2528 1.1342,-0.2527 c 0,0 0,0 0,0 l 1.1261,-0.2509 c 1.1821,-0.2634 1.9322,-1.4437 1.6688,-2.6258 -0.2634,-1.1821 -1.4436,-1.9322 -2.6258,-1.6688 l -1.1255,0.2508 c -2e-4,0 -3e-4,0 -5e-4,1e-4 l -1.1342,0.2527 -1.1342,0.2527 z"
           fill="#ffffff"
           fill-opacity="1"
           id="path181" />
        <path
           d="m -56.4187,-84.895 c 0.2634,1.1821 1.4437,1.9322 2.6258,1.6688 l 3.3945,-0.7564 c 1.1821,-0.2634 1.9322,-1.4436 1.6688,-2.6257 -0.2634,-1.1821 -1.4437,-1.9323 -2.6258,-1.6689 l -3.3945,0.7564 c -1.1821,0.2634 -1.9322,1.4437 -1.6688,2.6258 z"
           fill="#ffffff"
           fill-opacity="1"
           id="path183" />
      </g>
      <g
         id="g191">
        <path
           d="m -35.811,-74.4036 c 1.2338,2.9185 3.7773,3.2311 5.6809,0.6981 l 26.75479,-35.5995 c 1.90365,-2.533 0.92646,-4.091 -2.18263,-3.48 l -37.15156,8.041 c -3.1091,0.611 -4.6293,3.473 -3.3955,6.3912 z"
           fill="#007aff"
           fill-opacity="1"
           id="path187" />
        <path
           d="m -32.017,-103.13 -10.5179,2.394 2.8306,7.1621 6.7104,16.9789 0.7391,-20.0826 z m 2.4036,-0.462 -3.0478,27.0311 24.11492,-32.0631 z"
           fill="#ffffff"
           fill-opacity="1"
           id="path189" />
      </g>
    </g>
    <g
       id="g201"
       transform="matrix(3.6124444,0,0,3.6124444,253.47051,424.0095)">
      <path
         d="m 4.12284,-90.3502 c 3.03236,0 5.44189,-0.7801 7.22856,-2.3403 1.7867,-1.5602 2.6801,-3.674 2.6801,-6.3415 0,-2.491 -0.8367,-4.555 -2.5102,-6.191 -0.9563,-0.943 -2.06352,-1.585 -3.32176,-1.925 -1.24566,-0.339 -3.08898,-0.509 -5.52997,-0.509 h -4.98263 v 29.1406 H 2.08449 V -90.3502 Z M 2.08449,-103.599 h 1.45327 c 4.16477,0 6.24716,1.503 6.24716,4.5104 0,3.1078 -2.01947,4.6617 -6.05843,4.6617 h -1.642 z"
         fill="#ffffff"
         fill-opacity="1"
         id="path195" />
      <path
         d="m 28.9744,-94.7666 c -1.6987,-1.7615 -3.6175,-2.6423 -5.7565,-2.6423 -2.4787,0 -4.5422,0.9185 -6.1905,2.7556 -1.6483,1.837 -2.4725,4.1333 -2.4725,6.8888 0,2.8059 0.8242,5.1462 2.4725,7.021 1.6608,1.837 3.7621,2.7556 6.3037,2.7556 2.0132,0 3.8943,-0.8179 5.6433,-2.4536 v 1.9251 h 4.2654 v -18.3829 h -4.2654 z m -10.0786,7.0021 c 0,-1.6483 0.4845,-3.0323 1.4533,-4.1522 0.9814,-1.1072 2.2019,-1.6608 3.6615,-1.6608 1.5476,0 2.8059,0.5473 3.7747,1.642 0.9689,1.1198 1.4533,2.5416 1.4533,4.2654 0,1.7238 -0.4844,3.1456 -1.4533,4.2654 -0.9688,1.0821 -2.2397,1.6232 -3.8125,1.6232 -1.4721,0 -2.6926,-0.56 -3.6614,-1.6798 -0.9437,-1.1072 -1.4156,-2.5416 -1.4156,-4.3032 z"
         fill="#ffffff"
         fill-opacity="1"
         id="path197" />
      <path
         d="m 36.2734,-68.5134 h 4.8505 l 14.6459,-28.3859 h -4.7939 l -5.2468,10.5692 -5.6244,-10.5692 h -4.926 l 8.2667,14.9668 z"
         fill="#ffffff"
         fill-opacity="1"
         id="path199" />
    </g>
  </g>
</svg>
