<?xml version="1.0" encoding="UTF-8" standalone="no"?>
<!-- Created with Inkscape (http://www.inkscape.org/) -->

<svg
   width="250mm"
   height="250mm"
   viewBox="0 0 250 250"
   version="1.1"
   id="svg1867"
   inkscape:export-filename="logo_circle.svg"
   inkscape:export-xdpi="96"
   inkscape:export-ydpi="96"
   sodipodi:docname="logo_circle.svg"
   inkscape:version="1.2 (dc2aedaf03, 2022-05-15)"
   xmlns:inkscape="http://www.inkscape.org/namespaces/inkscape"
   xmlns:sodipodi="http://sodipodi.sourceforge.net/DTD/sodipodi-0.dtd"
   xmlns="http://www.w3.org/2000/svg"
   xmlns:svg="http://www.w3.org/2000/svg">
  <sodipodi:namedview
     id="namedview1869"
     pagecolor="#ffffff"
     bordercolor="#666666"
     borderopacity="1.0"
     inkscape:showpageshadow="2"
     inkscape:pageopacity="0.0"
     inkscape:pagecheckerboard="true"
     inkscape:deskcolor="#d1d1d1"
     inkscape:document-units="mm"
     showgrid="false"
     inkscape:zoom="0.86285294"
     inkscape:cx="134.43774"
     inkscape:cy="418.95899"
     inkscape:window-width="2560"
     inkscape:window-height="1356"
     inkscape:window-x="0"
     inkscape:window-y="0"
     inkscape:window-maximized="1"
     inkscape:current-layer="layer1" />
  <defs
     id="defs1864" />
  <g
     inkscape:label="Layer 1"
     inkscape:groupmode="layer"
     id="layer1">
    <ellipse
       style="fill:#a3cfff;fill-opacity:1;stroke:#a3cfff;stroke-width:0.321595;stroke-opacity:1"
       id="path1963"
       cx="148.11707"
       cy="121.87289"
       rx="100.42237"
       ry="96.201515" />
    <path
       d="m 36.646822,101.72984 c 0.951518,4.27027 5.215286,6.97997 9.485557,6.02845 L 101.34317,95.456107 c 4.27027,-0.950073 6.97996,-5.21637 6.02845,-9.486279 -0.95152,-4.269909 -5.21529,-6.979243 -9.485556,-6.02917 L 42.675268,92.244644 c -4.270269,0.950073 -6.979964,5.214925 -6.028446,9.485196 z"
       fill="#ffffff"
       fill-opacity="1"
       id="path175"
       style="fill:#007aff;fill-opacity:1;stroke-width:3.61244" />
    <path
       d="m 26.06525,129.66119 c 0.951518,4.05212 5.215286,6.62338 9.485556,5.72047 l 64.047198,-13.54224 c 4.270266,-0.90291 6.980316,-4.94886 6.028806,-9.00097 -0.95152,-4.05212 -5.21529,-6.62338 -9.485556,-5.72048 l -64.047196,13.54225 c -4.27027,0.90291 -6.980326,4.94885 -6.028808,9.00097 z"
       fill="#ffffff"
       fill-opacity="1"
       id="path177"
       style="fill:#007aff;fill-opacity:1;stroke-width:3.51896" />
    <path
       d="m 2.1512283,109.7931 c 0.951518,4.05212 5.215286,6.62338 9.4855577,5.72048 l 12.262442,-2.59252 c 4.270271,-0.90291 6.979965,-4.94886 6.028447,-9.00097 -0.951517,-4.052119 -5.215286,-6.623385 -9.485556,-5.721848 L 8.1796753,100.79214 c -4.27027,0.9029 -6.979965,4.94885 -6.028447,9.00096 z"
       fill="#ffffff"
       fill-opacity="1"
       id="path179"
       style="fill:#007aff;fill-opacity:1;stroke-width:3.51896"
       inkscape:label="path179" />
    <path
       d="m 89.739275,134.29025 -4.06761,0.90636 c -4.270269,0.95152 -6.979964,5.21492 -6.028446,9.48519 0.951518,4.27027 5.215286,6.98033 9.485556,6.02882 l 4.06761,-0.90637 c 0,0 0,0 0,0 l 4.097239,-0.91323 4.097226,-0.91287 c 0,0 0,0 0,0 l 4.06798,-0.90636 c 4.27027,-0.95152 6.97996,-5.21528 6.02844,-9.48555 -0.95151,-4.27027 -5.21492,-6.97996 -9.48555,-6.02845 l -4.065806,0.90601 c -7.2e-4,0 -10e-4,0 -0.002,3.6e-4 l -4.097229,0.91286 -4.09724,0.91287 z"
       fill="#ffffff"
       fill-opacity="1"
       id="path181"
       style="fill:#007aff;fill-opacity:1;stroke-width:3.61244" />
    <path
       d="m 47.7988,151.77773 c 0.951517,4.27027 5.215286,6.97997 9.485556,6.02845 l 12.262442,-2.73245 c 4.270271,-0.95152 6.979965,-5.21493 6.028447,-9.48521 -0.951517,-4.27027 -5.215286,-6.98032 -9.485556,-6.02881 l -12.262442,2.73246 c -4.270271,0.95151 -6.979965,5.21528 -6.028447,9.48556 z"
       fill="#ffffff"
       fill-opacity="1"
       id="path183"
       style="fill:#007aff;fill-opacity:1;stroke-width:3.61244" />
    <path
       d="m 122.24297,189.67733 c 4.45703,10.54292 13.64528,11.67217 20.52193,2.52185 L 239.41509,63.59796 c 6.87683,-9.150322 3.34679,-14.778509 -7.88463,-12.571307 L 97.322524,80.074319 C 86.091075,82.281522 80.599433,92.620338 85.056465,103.16217 Z"
       fill="#007aff"
       fill-opacity="1"
       id="path187"
       style="stroke-width:3.61244" />
    <path
       d="m 135.94858,85.904804 -37.995326,8.648192 10.225386,25.872694 24.24094,61.33533 2.66996,-72.54728 z m 8.68287,-1.668949 -11.01001,97.648355 87.11381,-115.826176 z"
       fill="#ffffff"
       fill-opacity="1"
       id="path189"
       style="stroke-width:3.61244" />
  </g>
</svg>
