<?xml version="1.0" encoding="UTF-8" standalone="no"?>
<!-- Created with Inkscape (http://www.inkscape.org/) -->

<svg
   width="250mm"
   height="250mm"
   viewBox="0 0 250 250"
   version="1.1"
   id="svg1867"
   xmlns="http://www.w3.org/2000/svg"
   xmlns:svg="http://www.w3.org/2000/svg">
  <defs
     id="defs1864" />
  <g
     id="layer1">
    <ellipse
       style="fill:#a3cfff;fill-opacity:1;stroke:#a3cfff;stroke-width:0.321595;stroke-opacity:1"
       id="path1963"
       cx="128.74944"
       cy="121.77708"
       rx="100.42237"
       ry="96.201515" />
    <path
       d="m 32.510918,98.417126 c 0.951518,4.270264 5.215286,6.979964 9.485557,6.028444 l 55.21079,-12.302177 c 4.270265,-0.950073 6.979955,-5.21637 6.028445,-9.486279 -0.95152,-4.269909 -5.215285,-6.979243 -9.485545,-6.02917 L 38.539364,88.93193 c -4.270269,0.950073 -6.979964,5.214925 -6.028446,9.485196 z"
       fill="#ffffff"
       fill-opacity="1"
       id="path175"
       style="fill:#ffffff;fill-opacity:1;stroke-width:3.61244" />
    <path
       d="m 29.821526,126.11887 c 0.951518,4.05212 5.215286,6.62338 9.485556,5.72047 L 103.35428,118.2971 c 4.27026,-0.90291 6.98031,-4.94886 6.0288,-9.00097 -0.95152,-4.05212 -5.21529,-6.62338 -9.485545,-5.72048 L 35.850334,117.1179 c -4.27027,0.90291 -6.980326,4.94885 -6.028808,9.00097 z"
       fill="#ffffff"
       fill-opacity="1"
       id="path177"
       style="fill:#ffffff;fill-opacity:1;stroke-width:3.51896" />
    <path
       d="m 80.790482,131.42383 -4.06761,0.90636 c -4.270269,0.95152 -6.979964,5.21492 -6.028446,9.48519 0.951518,4.27027 5.215286,6.98033 9.485556,6.02882 l 4.06761,-0.90637 c 0,0 0,0 0,0 l 4.09724,-0.91323 4.09722,-0.91287 c 0,0 0,0 0,0 l 4.067983,-0.90636 c 4.270265,-0.95152 6.979955,-5.21528 6.028435,-9.48555 -0.95151,-4.27027 -5.214915,-6.97996 -9.485545,-6.02845 l -4.065803,0.90601 c -7.2e-4,0 -0.001,0 -0.002,3.6e-4 l -4.09723,0.91286 -4.09724,0.91287 z"
       fill="#ffffff"
       fill-opacity="1"
       id="path181"
       style="fill:#ffffff;fill-opacity:1;stroke-width:3.61244" />
    <path
       d="m 34.683596,150.36909 c 0.951517,4.27027 5.215286,6.97997 9.485556,6.02845 l 12.262442,-2.73245 c 4.270271,-0.95152 6.979965,-5.21493 6.028447,-9.48521 -0.951517,-4.27027 -5.215286,-6.98032 -9.485556,-6.02881 l -12.262442,2.73246 c -4.270271,0.95151 -6.979965,5.21528 -6.028447,9.48556 z"
       fill="#ffffff"
       fill-opacity="1"
       id="path183"
       style="fill:#ffffff;fill-opacity:1;stroke-width:3.61244" />
    <path
       d="m 102.87534,189.58152 c 4.45703,10.54292 13.64528,11.67217 20.52193,2.52185 L 220.04746,63.502154 c 6.87683,-9.150322 3.34679,-14.778509 -7.88463,-12.571307 L 77.954896,79.978513 C 66.723447,82.185716 61.231805,92.524532 65.688837,103.06636 Z"
       fill="#007aff"
       fill-opacity="1"
       id="path187"
       style="stroke-width:3.61244" />
    <path
       d="m 116.58095,85.808998 -37.995324,8.648192 10.225386,25.87269 24.240938,61.33533 2.66996,-72.54728 z m 8.68287,-1.668949 -11.01001,97.648351 87.11381,-115.826172 z"
       fill="#ffffff"
       fill-opacity="1"
       id="path189"
       style="stroke-width:3.61244" />
  </g>
</svg>
