<svg xmlns="http://www.w3.org/2000/svg" xmlns:xlink="http://www.w3.org/1999/xlink" viewBox="0 0 48 48" width="48px" height="48px"><defs><linearGradient id="XCEl8415eD6kLuouIsaffa" x1="24.003" x2="24.003" y1="7" y2="32" gradientUnits="userSpaceOnUse"><stop offset=".205" stop-color="#ebebeb"/><stop offset=".425" stop-color="#e6e6e6"/><stop offset=".694" stop-color="#d7d7d7"/><stop offset=".987" stop-color="#bebebe"/><stop offset="1" stop-color="#bdbdbd"/></linearGradient><linearGradient id="XCEl8415eD6kLuouIsaffb" x1="23.5" x2="23.5" y1="34" y2="43" xlink:href="#XCEl8415eD6kLuouIsaffa"/></defs><g data-name="punctuation"><path fill="url(#XCEl8415eD6kLuouIsaffa)" d="M21,32a1.006,1.006,0,0,1-1-1.013c.013-2.7.1-3.788.641-5.1a11.527,11.527,0,0,1,3.117-4.124,13.8,13.8,0,0,0,2.57-2.773A4.048,4.048,0,0,0,27,17a2.706,2.706,0,0,0-3-3c-2.029,0-2.777,1.556-2.97,3.093a1.013,1.013,0,0,1-.994.907H14.008a1.009,1.009,0,0,1-1-1.049c.14-3.972,1.117-5.71,3.02-7.465C17.954,7.709,20.369,7,24,7c3.706,0,6.091.7,7.975,2.354A9.373,9.373,0,0,1,35,16.757a9.122,9.122,0,0,1-.979,4.137,16.237,16.237,0,0,1-3.25,4.116l-1.865,1.775a6.218,6.218,0,0,0-1.871,4.3,1,1,0,0,1-.992.917Z"/><circle cx="23.5" cy="38.5" r="4.5" fill="url(#XCEl8415eD6kLuouIsaffb)"/></g></svg>